<?xml version="1.0" encoding="utf-8"?>
<!-- Generator: Adobe Illustrator 23.0.2, SVG Export Plug-In . SVG Version: 6.00 Build 0)  -->
<svg version="1.1" id="レイヤー_1" xmlns="http://www.w3.org/2000/svg" xmlns:xlink="http://www.w3.org/1999/xlink" x="0px"
	 y="0px" viewBox="0 0 85 31" style="enable-background:new 0 0 85 31;" xml:space="preserve">
<style type="text/css">
	.st0{fill:#46B9CC;}
	.st1{fill:#249EB3;}
	.st2{fill:#FFFFFF;}
	.st3{fill:#444444;}
</style>
<g>
	<g>
		<path class="st0" d="M30.94,27.29c-4.42,0-6.67,3.31-14.28,3.31C7.46,30.6,0,24.75,0,15.3S7.46,0,16.66,0
			c7.61,0,9.86,3.31,14.28,3.31S37.61,0,45.22,0c9.2,0,16.66,5.85,16.66,15.3s-7.46,15.3-16.66,15.3
			C37.61,30.6,35.36,27.29,30.94,27.29z"/>
	</g>
	<path class="st1" d="M41.34,15.3c0,6.62-4.66,11.99-10.4,11.99c-5.74,0-10.4-5.37-10.4-11.99s4.66-11.99,10.4-11.99
		C36.68,3.31,41.34,8.68,41.34,15.3z"/>
	<g>
		<path class="st2" d="M10.69,21.09H7.68v-9.02H5.19V9.51h7.98v2.55h-2.49V21.09z"/>
		<path class="st2" d="M28.01,15.08c0,3.75-2.69,6.38-6.4,6.38c-3.71,0-6.4-2.64-6.4-6.38c0-3.5,3.07-5.96,6.4-5.96
			C24.94,9.13,28.01,11.58,28.01,15.08z"/>
		<path class="st2" d="M42.49,14.62c-0.03,1.69-0.15,3.13-1.18,4.57c-1.14,1.58-2.84,2.27-4.77,2.27c-3.64,0-6.17-2.47-6.17-6.11
			c0-3.76,2.55-6.23,6.28-6.23c2.38,0,4.22,1.07,5.22,3.24L39,13.56c-0.41-1.1-1.29-1.84-2.5-1.84c-1.98,0-3.01,1.89-3.01,3.65
			c0,1.8,1.07,3.62,3.05,3.62c1.3,0,2.3-0.68,2.43-2.01h-2.46v-2.36H42.49z"/>
		<path class="st2" d="M57.62,15.08c0,3.75-2.69,6.38-6.4,6.38c-3.71,0-6.4-2.64-6.4-6.38c0-3.5,3.07-5.96,6.4-5.96
			C54.55,9.13,57.62,11.58,57.62,15.08z"/>
	</g>
	<g>
		<path class="st3" d="M70.39,21.04h-3.01V9.46h3.01V21.04z"/>
		<path class="st3" d="M73.89,9.46h4.27c3.23,0,5.89,2.54,5.89,5.79c0,3.26-2.67,5.79-5.89,5.79h-4.27V9.46z M76.9,18.49h0.68
			c1.8,0,3.33-0.98,3.33-3.24c0-2.07-1.37-3.24-3.3-3.24H76.9V18.49z"/>
	</g>
</g>
</svg>
